<svg width="24" height="24" viewBox="0 0 24 24" fill="none" xmlns="http://www.w3.org/2000/svg">
    <g id="check">
        <g clip-path="url(#clip0_1_1483)">
            <path d="M9.99999 15.172L19.192 5.979L20.607 7.393L9.99999 18L3.63599 11.636L5.04999 10.222L9.99999 15.172Z"
                  fill="#1B1B1B"/>
        </g>
        <defs>
            <clipPath id="clip0_1_1483">
                <rect width="24" height="24" fill="white"/>
            </clipPath>
        </defs>
    </g>
    <g id="home">
        <g clip-path="url(#clip0_1_1586)">
            <path d="M14.9999 14.9999C14.9999 15.1989 14.9209 15.3896 14.7803 15.5303C14.6396 15.6709 14.4488 15.7499 14.2499 15.7499H3.74992C3.55101 15.7499 3.36025 15.6709 3.21959 15.5303C3.07894 15.3896 2.99992 15.1989 2.99992 14.9999V8.24994H0.749924L8.49517 1.20894C8.63326 1.0833 8.81323 1.01367 8.99992 1.01367C9.18661 1.01367 9.36659 1.0833 9.50467 1.20894L17.2499 8.24994H14.9999V14.9999Z"
                  fill="#2B2B2B"/>
        </g>
        <defs>
            <clipPath id="clip0_1_1586">
                <rect width="18" height="18" fill="white"/>
            </clipPath>
        </defs>
    </g>
    <g id="portfolio">
        <g clip-path="url(#clip0_1_1589)">
            <path d="M6.75 9.75V12H11.25V9.75H16.5V15C16.5 15.1989 16.421 15.3897 16.2803 15.5303C16.1397 15.671 15.9489 15.75 15.75 15.75H2.25C2.05109 15.75 1.86032 15.671 1.71967 15.5303C1.57902 15.3897 1.5 15.1989 1.5 15V9.75H6.75ZM8.25 8.25H9.75V10.5H8.25V8.25ZM5.25 3.75V1.5C5.25 1.30109 5.32902 1.11032 5.46967 0.96967C5.61032 0.829018 5.80109 0.75 6 0.75H12C12.1989 0.75 12.3897 0.829018 12.5303 0.96967C12.671 1.11032 12.75 1.30109 12.75 1.5V3.75H15.75C15.9489 3.75 16.1397 3.82902 16.2803 3.96967C16.421 4.11032 16.5 4.30109 16.5 4.5V8.25H11.25V6.75H6.75V8.25H1.5V4.5C1.5 4.30109 1.57902 4.11032 1.71967 3.96967C1.86032 3.82902 2.05109 3.75 2.25 3.75H5.25ZM6.75 2.25V3.75H11.25V2.25H6.75Z"
                  fill="#2B2B2B"/>
        </g>
        <defs>
            <clipPath id="clip0_1_1589">
                <rect width="18" height="18" fill="white"/>
            </clipPath>
        </defs>
    </g>
    <g id="blog">
        <g clip-path="url(#clip0_1_1592)">
            <path d="M15.75 1.5C4.5 1.5 3 12 2.25 16.5H3.7485C4.248 14.0002 5.49825 12.6255 7.5 12.375C10.5 12 12.75 9.375 13.5 7.125L12.375 6.375L13.125 5.625C13.875 4.875 14.628 3.75 15.75 1.5Z"
                  fill="#2B2B2B"/>
        </g>
        <defs>
            <clipPath id="clip0_1_1592">
                <rect width="18" height="18" fill="white"/>
            </clipPath>
        </defs>
    </g>
    <g id="contact">
        <g clip-path="url(#clip0_1_1595)">
            <path d="M4.84125 14.25L1.5 16.875V3C1.5 2.80109 1.57902 2.61032 1.71967 2.46967C1.86032 2.32902 2.05109 2.25 2.25 2.25H15.75C15.9489 2.25 16.1397 2.32902 16.2803 2.46967C16.421 2.61032 16.5 2.80109 16.5 3V13.5C16.5 13.6989 16.421 13.8897 16.2803 14.0303C16.1397 14.171 15.9489 14.25 15.75 14.25H4.84125Z"
                  fill="#2B2B2B"/>
        </g>
        <defs>
            <clipPath id="clip0_1_1595">
                <rect width="18" height="18" fill="white"/>
            </clipPath>
        </defs>
    </g>
    <g id="services">
        <g clip-path="url(#clip0_1_1598)">
            <path d="M17.5 4.28699V4.5H12V0H12.2603C12.5338 0 12.7962 0.0889101 12.9896 0.247113L17.198 3.69035C17.3913 3.8486 17.5 4.06321 17.5 4.28699ZM11.6562 5.625C11.0891 5.625 10.625 5.24531 10.625 4.78125V0H2.03125C1.4617 0 1 0.377754 1 0.84375V17.1562C1 17.6222 1.4617 18 2.03125 18H16.4688C17.0383 18 17.5 17.6222 17.5 17.1562V5.625H11.6562ZM6.29401 14.0803C6.27317 14.0984 6.24815 14.1131 6.22039 14.1234C6.19263 14.1337 6.16266 14.1394 6.13221 14.1402C6.10175 14.141 6.0714 14.1368 6.04289 14.1281C6.01437 14.1193 5.98826 14.106 5.96603 14.0889L3.17882 11.951C3.15567 11.9332 3.13722 11.9118 3.1246 11.888C3.11199 11.8641 3.10548 11.8384 3.10548 11.8125C3.10548 11.7865 3.11199 11.7608 3.1246 11.737C3.13722 11.7132 3.15567 11.6917 3.17882 11.674L5.96603 9.53606C5.98826 9.51901 6.01437 9.50571 6.04289 9.49691C6.0714 9.48812 6.10175 9.484 6.13221 9.48481C6.16266 9.48561 6.19263 9.49131 6.22039 9.50159C6.24815 9.51187 6.27317 9.52652 6.29401 9.54471L7.13529 10.2789C7.15655 10.2975 7.17304 10.3194 7.18377 10.3432C7.19451 10.3671 7.19927 10.3925 7.19778 10.4179C7.19629 10.4433 7.18858 10.4682 7.1751 10.4911C7.16161 10.514 7.14264 10.5345 7.11931 10.5513L5.36777 11.8125L7.11931 13.0737C7.14264 13.0905 7.16161 13.111 7.1751 13.1339C7.18858 13.1568 7.19629 13.1817 7.19778 13.2071C7.19927 13.2325 7.19451 13.2579 7.18377 13.2818C7.17304 13.3056 7.15655 13.3275 7.13529 13.3461L6.29401 14.0803ZM8.49809 15.8549L7.31847 15.5747C7.25937 15.5607 7.20951 15.528 7.17985 15.4839C7.15019 15.4398 7.14316 15.3878 7.1603 15.3394L9.8003 7.89947C9.81747 7.85112 9.85741 7.81032 9.91133 7.78606C9.96525 7.76179 10.0287 7.75603 10.0878 7.77006L11.2674 8.05025C11.2967 8.05721 11.324 8.06881 11.3478 8.08439C11.3716 8.09998 11.3914 8.11924 11.406 8.14109C11.4207 8.16294 11.43 8.18694 11.4334 8.21172C11.4367 8.2365 11.434 8.26158 11.4256 8.28552L8.78555 15.7255C8.77707 15.7494 8.76291 15.7718 8.74387 15.7913C8.72483 15.8107 8.70129 15.8269 8.6746 15.8389C8.6479 15.851 8.61857 15.8586 8.58829 15.8613C8.558 15.864 8.52735 15.8619 8.49809 15.8549ZM15.4071 11.951L12.6199 14.0889C12.5977 14.106 12.5716 14.1193 12.5431 14.1281C12.5145 14.1368 12.4842 14.141 12.4537 14.1402C12.4233 14.1394 12.3933 14.1337 12.3655 14.1234C12.3378 14.1131 12.3128 14.0984 12.2919 14.0803L11.4506 13.346C11.4293 13.3275 11.4129 13.3056 11.4021 13.2817C11.3914 13.2579 11.3866 13.2325 11.3881 13.2071C11.3896 13.1817 11.3973 13.1568 11.4108 13.1338C11.4243 13.1109 11.4433 13.0905 11.4666 13.0737L13.2182 11.8125L11.4666 10.5513C11.4433 10.5345 11.4243 10.514 11.4108 10.4911C11.3974 10.4682 11.3896 10.4433 11.3882 10.4179C11.3867 10.3925 11.3914 10.3671 11.4022 10.3432C11.4129 10.3194 11.4294 10.2975 11.4506 10.2789L12.292 9.54471C12.3128 9.52652 12.3378 9.51187 12.3656 9.50159C12.3934 9.49131 12.4233 9.48561 12.4538 9.48481C12.4842 9.484 12.5146 9.48812 12.5431 9.49691C12.5716 9.50571 12.5977 9.51901 12.62 9.53606L15.4072 11.674C15.4303 11.6917 15.4488 11.7132 15.4614 11.737C15.474 11.7608 15.4805 11.7865 15.4805 11.8125C15.4805 11.8385 15.474 11.8641 15.4613 11.888C15.4487 11.9118 15.4303 11.9332 15.4071 11.951Z"
                  fill="#1B1B1B"/>
        </g>
        <defs>
            <clipPath id="clip0_1_1598">
                <rect width="16.5" height="18" fill="white" transform="translate(1)"/>
            </clipPath>
        </defs>
    </g>
    <g id="cv">
        <g clip-path="url(#clip0_1_1601)">
            <path d="M12.7636 11.272L9.25 14.6259L5.73638 11.272C3.10301 11.381 1 13.4376 1 15.9759V16.3134C1 17.245 1.79185 18.0009 2.76786 18.0009H15.7321C16.7081 18.0009 17.5 17.245 17.5 16.3134V15.9759C17.5 13.4376 15.397 11.381 12.7636 11.272ZM1.50089 2.80635L1.73661 2.85909V4.91221C1.47879 5.05987 1.29464 5.31651 1.29464 5.62589C1.29464 5.9212 1.46406 6.16729 1.70346 6.31846L1.12891 8.5087C1.06629 8.75128 1.20625 9.00089 1.40882 9.00089H2.94833C3.15089 9.00089 3.29085 8.75128 3.22824 8.5087L2.65368 6.31846C2.89308 6.16729 3.0625 5.9212 3.0625 5.62589C3.0625 5.31651 2.87835 5.05987 2.62054 4.91221V3.06299L5.05134 3.62198C4.7346 4.22667 4.53571 4.90167 4.53571 5.62589C4.53571 8.11143 6.64609 10.1259 9.25 10.1259C11.8539 10.1259 13.9643 8.11143 13.9643 5.62589C13.9643 4.90167 13.7691 4.22667 13.4487 3.62198L16.9954 2.80635C17.6657 2.65166 17.6657 1.85362 16.9954 1.69893L9.98292 0.0817384C9.50413 -0.0272461 8.99955 -0.0272461 8.52076 0.0817384L1.50089 1.69541C0.834263 1.8501 0.834263 2.65166 1.50089 2.80635Z"
                  fill="black"/>
        </g>
        <defs>
            <clipPath id="clip0_1_1601">
                <rect width="18" height="18" fill="white"/>
            </clipPath>
        </defs>
    </g>
    <g id="location">
        <g clip-path="url(#clip0_1_1564)">
            <path d="M1.5 3.75L6.75 1.5L11.25 3.75L15.9772 1.72425C16.0343 1.69979 16.0966 1.68988 16.1584 1.69541C16.2202 1.70094 16.2797 1.72173 16.3316 1.75593C16.3834 1.79013 16.4259 1.83666 16.4553 1.89135C16.4847 1.94603 16.5001 2.00716 16.5 2.06925V14.25L11.25 16.5L6.75 14.25L2.02275 16.2758C1.96569 16.3002 1.90344 16.3101 1.8416 16.3046C1.77976 16.2991 1.72026 16.2783 1.66844 16.2441C1.61662 16.2099 1.5741 16.1633 1.54471 16.1087C1.51531 16.054 1.49994 15.9928 1.5 15.9307V3.75ZM11.25 14.823V5.382L11.2013 5.403L6.75 3.177V12.618L6.79875 12.597L11.25 14.823Z"
                  fill="#2B2B2B"/>
        </g>
        <defs>
            <clipPath id="clip0_1_1564">
                <rect width="18" height="18" fill="white"/>
            </clipPath>
        </defs>
    </g>
    <g id="mail">
        <g clip-path="url(#clip0_1_1567)">
            <path d="M2.25 2.25H15.75C15.9489 2.25 16.1397 2.32902 16.2803 2.46967C16.421 2.61032 16.5 2.80109 16.5 3V15C16.5 15.1989 16.421 15.3897 16.2803 15.5303C16.1397 15.671 15.9489 15.75 15.75 15.75H2.25C2.05109 15.75 1.86032 15.671 1.71967 15.5303C1.57902 15.3897 1.5 15.1989 1.5 15V3C1.5 2.80109 1.57902 2.61032 1.71967 2.46967C1.86032 2.32902 2.05109 2.25 2.25 2.25ZM9.045 8.76225L4.236 4.6785L3.26475 5.8215L9.05475 10.7378L14.7405 5.81775L13.7595 4.683L9.04575 8.76225H9.045Z"
                  fill="#2B2B2B"/>
        </g>
        <defs>
            <clipPath id="clip0_1_1567">
                <rect width="18" height="18" fill="white"/>
            </clipPath>
        </defs>
    </g>
    <g id="mobile">
        <g clip-path="url(#clip0_1_1570)">
            <path d="M4.5 1.5H13.5C13.6989 1.5 13.8897 1.57902 14.0303 1.71967C14.171 1.86032 14.25 2.05109 14.25 2.25V15.75C14.25 15.9489 14.171 16.1397 14.0303 16.2803C13.8897 16.421 13.6989 16.5 13.5 16.5H4.5C4.30109 16.5 4.11032 16.421 3.96967 16.2803C3.82902 16.1397 3.75 15.9489 3.75 15.75V2.25C3.75 2.05109 3.82902 1.86032 3.96967 1.71967C4.11032 1.57902 4.30109 1.5 4.5 1.5ZM9 12.75C8.80109 12.75 8.61032 12.829 8.46967 12.9697C8.32902 13.1103 8.25 13.3011 8.25 13.5C8.25 13.6989 8.32902 13.8897 8.46967 14.0303C8.61032 14.171 8.80109 14.25 9 14.25C9.19891 14.25 9.38968 14.171 9.53033 14.0303C9.67098 13.8897 9.75 13.6989 9.75 13.5C9.75 13.3011 9.67098 13.1103 9.53033 12.9697C9.38968 12.829 9.19891 12.75 9 12.75Z"
                  fill="#2B2B2B"/>
        </g>
        <defs>
            <clipPath id="clip0_1_1570">
                <rect width="18" height="18" fill="white"/>
            </clipPath>
        </defs>
    </g>
    <g id="facebook">
        <g clip-path="url(#clip0_1_1459)">
            <path d="M8.16666 7.87484H9.625L10.2083 5.5415H8.16666V4.37484C8.16666 3.774 8.16666 3.20817 9.33333 3.20817H10.2083V1.24817C10.0182 1.22309 9.30008 1.1665 8.54175 1.1665C6.95799 1.1665 5.83333 2.13309 5.83333 3.90817V5.5415H4.08333V7.87484H5.83333V12.8332H8.16666V7.87484Z"
                  fill="#1B1B1B"/>
        </g>
        <defs>
            <clipPath id="clip0_1_1459">
                <rect width="14" height="14" fill="white"/>
            </clipPath>
        </defs>
    </g>
    <g id="instagram">
        <g clip-path="url(#clip0_1_1462)">
            <path d="M7.00001 1.1665C8.58492 1.1665 8.78267 1.17234 9.40451 1.2015C10.0258 1.23067 10.4487 1.32809 10.8208 1.47275C11.2058 1.62092 11.5302 1.82159 11.8545 2.14534C12.1511 2.43694 12.3806 2.78968 12.5271 3.179C12.6712 3.55059 12.7692 3.97409 12.7983 4.59534C12.8258 5.21717 12.8333 5.41492 12.8333 6.99984C12.8333 8.58475 12.8275 8.7825 12.7983 9.40434C12.7692 10.0256 12.6712 10.4485 12.5271 10.8207C12.3811 11.2102 12.1515 11.563 11.8545 11.8543C11.5628 12.1509 11.2101 12.3804 10.8208 12.5269C10.4493 12.671 10.0258 12.769 9.40451 12.7982C8.78267 12.8256 8.58492 12.8332 7.00001 12.8332C5.41509 12.8332 5.21734 12.8273 4.59551 12.7982C3.97426 12.769 3.55134 12.671 3.17917 12.5269C2.7897 12.3808 2.4369 12.1512 2.14551 11.8543C1.84883 11.5628 1.6193 11.21 1.47292 10.8207C1.32826 10.4491 1.23084 10.0256 1.20167 9.40434C1.17426 8.7825 1.16667 8.58475 1.16667 6.99984C1.16667 5.41492 1.17251 5.21717 1.20167 4.59534C1.23084 3.9735 1.32826 3.55117 1.47292 3.179C1.61889 2.78944 1.84847 2.43661 2.14551 2.14534C2.43698 1.84856 2.78976 1.61901 3.17917 1.47275C3.55134 1.32809 3.97367 1.23067 4.59551 1.2015C5.21734 1.17409 5.41509 1.1665 7.00001 1.1665ZM7.00001 4.08317C6.22646 4.08317 5.48459 4.39046 4.93761 4.93744C4.39063 5.48442 4.08334 6.22629 4.08334 6.99984C4.08334 7.77339 4.39063 8.51525 4.93761 9.06223C5.48459 9.60921 6.22646 9.9165 7.00001 9.9165C7.77355 9.9165 8.51542 9.60921 9.0624 9.06223C9.60938 8.51525 9.91667 7.77339 9.91667 6.99984C9.91667 6.22629 9.60938 5.48442 9.0624 4.93744C8.51542 4.39046 7.77355 4.08317 7.00001 4.08317ZM10.7917 3.93734C10.7917 3.74395 10.7149 3.55848 10.5781 3.42174C10.4414 3.28499 10.2559 3.20817 10.0625 3.20817C9.86912 3.20817 9.68365 3.28499 9.54691 3.42174C9.41016 3.55848 9.33334 3.74395 9.33334 3.93734C9.33334 4.13072 9.41016 4.31619 9.54691 4.45294C9.68365 4.58968 9.86912 4.6665 10.0625 4.6665C10.2559 4.6665 10.4414 4.58968 10.5781 4.45294C10.7149 4.31619 10.7917 4.13072 10.7917 3.93734ZM7.00001 5.24984C7.46413 5.24984 7.90925 5.43421 8.23744 5.7624C8.56563 6.09059 8.75001 6.53571 8.75001 6.99984C8.75001 7.46397 8.56563 7.90909 8.23744 8.23727C7.90925 8.56546 7.46413 8.74984 7.00001 8.74984C6.53588 8.74984 6.09076 8.56546 5.76257 8.23727C5.43438 7.90909 5.25001 7.46397 5.25001 6.99984C5.25001 6.53571 5.43438 6.09059 5.76257 5.7624C6.09076 5.43421 6.53588 5.24984 7.00001 5.24984Z"
                  fill="#1B1B1B"/>
        </g>
        <defs>
            <clipPath id="clip0_1_1462">
                <rect width="14" height="14" fill="white"/>
            </clipPath>
        </defs>
    </g>
    <g id="twitter">
        <g clip-path="url(#clip0_1_1465)">
            <path d="M12.9278 3.29953C12.4825 3.49652 12.0102 3.62589 11.5267 3.68337C12.0364 3.37854 12.4178 2.89879 12.6 2.33353C12.1217 2.6182 11.5973 2.8177 11.0507 2.92562C10.6835 2.53279 10.1969 2.27226 9.66639 2.18454C9.13591 2.09682 8.5913 2.18682 8.11724 2.44055C7.64318 2.69428 7.26623 3.09752 7.04498 3.58758C6.82374 4.07764 6.7706 4.62707 6.89383 5.15045C5.92381 5.10183 4.97486 4.84976 4.10858 4.41059C3.24231 3.97142 2.47807 3.35498 1.8655 2.60128C1.64867 2.97371 1.53472 3.39708 1.53533 3.82803C1.53533 4.67387 1.96583 5.42112 2.62033 5.85862C2.23301 5.84642 1.8542 5.74182 1.5155 5.55354V5.58387C1.51562 6.14719 1.71055 6.69314 2.06724 7.12915C2.42394 7.56516 2.92045 7.8644 3.47258 7.97612C3.11303 8.07356 2.73601 8.08792 2.37008 8.01812C2.52576 8.503 2.82917 8.92707 3.23785 9.23093C3.64652 9.5348 4.13999 9.70325 4.64917 9.7127C4.14311 10.1101 3.56369 10.4039 2.94401 10.5773C2.32434 10.7507 1.67657 10.8002 1.03775 10.723C2.15291 11.4402 3.45106 11.8209 4.77692 11.8197C9.2645 11.8197 11.7186 8.10212 11.7186 4.87804C11.7186 4.77304 11.7157 4.66687 11.711 4.56303C12.1887 4.2178 12.6009 3.79013 12.9284 3.30012L12.9278 3.29953Z"
                  fill="#1B1B1B"/>
        </g>
        <defs>
            <clipPath id="clip0_1_1465">
                <rect width="14" height="14" fill="white"/>
            </clipPath>
        </defs>
    </g>
    <g id="dribble">
        <g clip-path="url(#clip0_1_1471)">
            <path d="M11.6603 6.75017C11.6124 5.83195 11.2931 4.94861 10.7427 4.21209C10.575 4.3927 10.3957 4.56223 10.206 4.71959C9.62321 5.20366 8.97196 5.59878 8.27342 5.89209C8.37084 6.09625 8.46009 6.294 8.53884 6.48067V6.48242C8.56106 6.53458 8.58245 6.58709 8.60301 6.63992C9.48617 6.54075 10.4172 6.57692 11.3196 6.69884C11.4398 6.71517 11.5529 6.73267 11.6603 6.75017ZM6.18567 2.40434C6.75415 3.20535 7.27838 4.03688 7.75601 4.89517C8.46942 4.614 9.05917 4.25934 9.53401 3.86442C9.69883 3.72858 9.85398 3.58142 9.99834 3.424C9.15891 2.71801 8.09685 2.33161 7.00001 2.33317C6.72703 2.33298 6.45455 2.3566 6.18567 2.40375V2.40434ZM2.48092 5.83142C2.8783 5.82139 3.27521 5.79746 3.67092 5.75967C4.62738 5.67412 5.57567 5.5138 6.50709 5.28017C6.0203 4.43446 5.49474 3.61167 4.93209 2.81442C4.33109 3.11215 3.80116 3.53566 3.37823 4.05621C2.95531 4.57677 2.64928 5.18219 2.48092 5.83142ZM3.37342 9.93692C3.59976 9.60617 3.89726 9.234 4.29217 8.82917C5.14034 7.96 6.14134 7.28334 7.29984 6.91L7.33601 6.8995C7.23976 6.68717 7.14934 6.49759 7.05834 6.31909C5.98734 6.63117 4.85917 6.826 3.73509 6.92692C3.18676 6.9765 2.69501 6.99809 2.33334 7.00159C2.33231 8.0706 2.69984 9.10729 3.37401 9.93692H3.37342ZM8.75292 11.3253C8.52797 10.1908 8.20955 9.07694 7.80092 7.995C6.63309 8.41909 5.70267 9.03917 4.98342 9.77884C4.69316 10.0719 4.43556 10.3956 4.21517 10.7443C5.01948 11.3444 5.99648 11.6679 7.00001 11.6665C7.60079 11.6674 8.19605 11.5519 8.75292 11.3264V11.3253ZM9.84551 10.6982C10.7562 9.99803 11.3767 8.9865 11.5879 7.85734C11.3896 7.80775 11.1382 7.75817 10.8617 7.71967C10.2469 7.63115 9.62313 7.62467 9.00667 7.70042C9.35379 8.67974 9.63404 9.68148 9.84551 10.6988V10.6982ZM7.00001 12.8332C3.77826 12.8332 1.16667 10.2216 1.16667 6.99984C1.16667 3.77809 3.77826 1.1665 7.00001 1.1665C10.2218 1.1665 12.8333 3.77809 12.8333 6.99984C12.8333 10.2216 10.2218 12.8332 7.00001 12.8332Z"
                  fill="#2B2B2B"/>
        </g>
        <defs>
            <clipPath id="clip0_1_1471">
                <rect width="14" height="14" fill="white"/>
            </clipPath>
        </defs>
    </g>
    <g id="youtube">
        <g clip-path="url(#clip0_1_1474)">
            <path d="M12.5668 3.79066C12.8333 4.83016 12.8333 7.00016 12.8333 7.00016C12.8333 7.00016 12.8333 9.17016 12.5668 10.2097C12.4186 10.7842 11.9852 11.2363 11.4363 11.3892C10.4393 11.6668 7.00001 11.6668 7.00001 11.6668C7.00001 11.6668 3.56242 11.6668 2.56376 11.3892C2.01251 11.234 1.57967 10.7825 1.43326 10.2097C1.16667 9.17016 1.16667 7.00016 1.16667 7.00016C1.16667 7.00016 1.16667 4.83016 1.43326 3.79066C1.58142 3.21608 2.01484 2.764 2.56376 2.61116C3.56242 2.3335 7.00001 2.3335 7.00001 2.3335C7.00001 2.3335 10.4393 2.3335 11.4363 2.61116C11.9875 2.76633 12.4203 3.21783 12.5668 3.79066ZM5.83334 9.04183L9.33334 7.00016L5.83334 4.9585V9.04183Z"
                  fill="#1B1B1B"/>
        </g>
        <defs>
            <clipPath id="clip0_1_1474">
                <rect width="14" height="14" fill="white"/>
            </clipPath>
        </defs>
    </g>
    <g id="doubleIcon">
        <rect x="0.5" y="0.5" width="9" height="9" stroke="#2B2B2B"/>
        <rect x="5.5" y="5.5" width="9" height="9" stroke="#2B2B2B"/>
    </g>
    <g id="contrast">
        <g clip-path="url(#clip0_1_1480)">
            <path d="M15.5 27C8.59625 27 3 21.4037 3 14.5C3 7.59625 8.59625 2 15.5 2C22.4037 2 28 7.59625 28 14.5C28 21.4037 22.4037 27 15.5 27ZM7.16125 20.0312C7.98286 21.2605 9.06683 22.2923 10.3351 23.0523C11.6034 23.8123 13.0245 24.2816 14.4959 24.4264C15.9674 24.5712 17.4526 24.3879 18.8448 23.8897C20.2369 23.3915 21.5012 22.5908 22.5466 21.5452C23.5921 20.4997 24.3927 19.2353 24.8908 17.8432C25.3888 16.451 25.572 14.9657 25.4271 13.4943C25.2822 12.0228 24.8127 10.6018 24.0526 9.3336C23.2925 8.06538 22.2606 6.98149 21.0312 6.16C21.5702 8.08278 21.5875 10.1144 21.0814 12.0461C20.5752 13.9778 19.5639 15.7398 18.1513 17.1513C16.74 18.5637 14.9781 19.5749 13.0467 20.081C11.1152 20.5872 9.08385 20.57 7.16125 20.0312Z"
                  fill="#1B1B1B"/>
        </g>
        <defs>
            <clipPath id="clip0_1_1480">
                <rect width="30" height="30" fill="white"/>
            </clipPath>
        </defs>
    </g>
    <g id="close">
        <g clip-path="url(#clip0_1_1486)">
            <path d="M12 10.5862L16.95 5.63623L18.364 7.05023L13.414 12.0002L18.364 16.9502L16.95 18.3642L12 13.4142L7.04999 18.3642L5.63599 16.9502L10.586 12.0002L5.63599 7.05023L7.04999 5.63623L12 10.5862Z"
                  fill="#1B1B1B"/>
        </g>
        <defs>
            <clipPath id="clip0_1_1486">
                <rect width="24" height="24" fill="white"/>
            </clipPath>
        </defs>
    </g>
    <g id="star">
        <path d="M9 13.2448L12.9107 12.2343L14.5446 17.3684L9 13.2448ZM18 6.60873H11.1161L9 0L6.88393 6.60873H0L5.57143 10.7051L3.45535 17.3138L9.02679 13.2175L12.4554 10.7051L18 6.60873Z"
              fill="#1B1B1B"/>
    </g>
</svg>
